<svg width="154" height="40" viewBox="0 0 154 40" fill="none" xmlns="http://www.w3.org/2000/svg">
<g filter="url(#filter0_d)">
<rect x="116" y="11.4656" width="20" height="20" fill="#C5A880"/>
</g>
<g filter="url(#filter1_d)">
<rect x="130" y="0.465576" width="20" height="20" fill="#532E1C"/>
</g>
<path d="M17.4403 21.0556C17.4403 22.8556 17.1603 24.4256 16.6003 25.7656C16.0403 27.0856 15.2503 28.1856 14.2303 29.0656C13.2103 29.9256 11.9903 30.5756 10.5703 31.0156C9.1503 31.4356 7.5903 31.6456 5.8903 31.6456C5.0503 31.6456 4.1203 31.6056 3.1003 31.5256C2.1003 31.4656 1.1903 31.3356 0.3703 31.1356V10.9756C1.1903 10.7756 2.1003 10.6456 3.1003 10.5856C4.1203 10.5056 5.0503 10.4656 5.8903 10.4656C7.5903 10.4656 9.1503 10.6856 10.5703 11.1256C11.9903 11.5456 13.2103 12.1956 14.2303 13.0756C15.2503 13.9356 16.0403 15.0356 16.6003 16.3756C17.1603 17.6956 17.4403 19.2556 17.4403 21.0556ZM6.1303 29.0956C8.8903 29.0956 10.9503 28.3956 12.3103 26.9956C13.6703 25.5756 14.3503 23.5956 14.3503 21.0556C14.3503 18.5156 13.6703 16.5456 12.3103 15.1456C10.9503 13.7256 8.8903 13.0156 6.1303 13.0156C5.3103 13.0156 4.6703 13.0256 4.2103 13.0456C3.7703 13.0656 3.4603 13.0856 3.2803 13.1056V29.0056C3.4603 29.0256 3.7703 29.0456 4.2103 29.0656C4.6703 29.0856 5.3103 29.0956 6.1303 29.0956Z" fill="#E6E6E6"/>
<path d="M31.927 22.7656C32.247 23.1656 32.647 23.6956 33.127 24.3556C33.627 24.9956 34.137 25.7156 34.657 26.5156C35.177 27.2956 35.687 28.1156 36.187 28.9756C36.707 29.8356 37.147 30.6656 37.507 31.4656H34.327C33.927 30.7056 33.487 29.9356 33.007 29.1556C32.547 28.3756 32.077 27.6356 31.597 26.9356C31.117 26.2156 30.637 25.5456 30.157 24.9256C29.697 24.3056 29.277 23.7656 28.897 23.3056C28.637 23.3256 28.367 23.3356 28.087 23.3356C27.827 23.3356 27.557 23.3356 27.277 23.3356H24.667V31.4656H21.757V10.9756C22.577 10.7756 23.487 10.6456 24.487 10.5856C25.507 10.5056 26.437 10.4656 27.277 10.4656C30.197 10.4656 32.417 11.0156 33.937 12.1156C35.477 13.2156 36.247 14.8556 36.247 17.0356C36.247 18.4156 35.877 19.5956 35.137 20.5756C34.417 21.5556 33.347 22.2856 31.927 22.7656ZM27.517 13.0156C26.277 13.0156 25.327 13.0456 24.667 13.1056V20.9356H26.737C27.737 20.9356 28.637 20.8856 29.437 20.7856C30.237 20.6856 30.907 20.4956 31.447 20.2156C32.007 19.9356 32.437 19.5456 32.737 19.0456C33.037 18.5256 33.187 17.8456 33.187 17.0056C33.187 16.2256 33.037 15.5756 32.737 15.0556C32.437 14.5356 32.027 14.1256 31.507 13.8256C31.007 13.5256 30.407 13.3156 29.707 13.1956C29.027 13.0756 28.297 13.0156 27.517 13.0156Z" fill="#E6E6E6"/>
<path d="M48.3642 31.9156C47.0042 31.9156 45.8242 31.7056 44.8242 31.2856C43.8242 30.8656 43.0042 30.2956 42.3642 29.5756C41.7242 28.8356 41.2442 27.9656 40.9242 26.9656C40.6242 25.9656 40.4742 24.8856 40.4742 23.7256V10.6756H43.3842V23.3956C43.3842 25.4756 43.8442 26.9856 44.7642 27.9256C45.6842 28.8656 46.8842 29.3356 48.3642 29.3356C49.1042 29.3356 49.7742 29.2256 50.3742 29.0056C50.9942 28.7656 51.5242 28.4056 51.9642 27.9256C52.4042 27.4456 52.7442 26.8356 52.9842 26.0956C53.2242 25.3356 53.3442 24.4356 53.3442 23.3956V10.6756H56.2542V23.7256C56.2542 24.8856 56.0942 25.9656 55.7742 26.9656C55.4742 27.9656 54.9942 28.8356 54.3342 29.5756C53.6942 30.2956 52.8742 30.8656 51.8742 31.2856C50.8942 31.7056 49.7242 31.9156 48.3642 31.9156Z" fill="#E6E6E6"/>
<path d="M70.6085 28.5856C70.4085 28.1056 70.1385 27.4956 69.7985 26.7556C69.4785 26.0156 69.1285 25.2156 68.7485 24.3556C68.3685 23.4956 67.9585 22.6156 67.5185 21.7156C67.0985 20.7956 66.6985 19.9356 66.3185 19.1356C65.9385 18.3156 65.5785 17.5856 65.2385 16.9456C64.9185 16.3056 64.6585 15.8156 64.4585 15.4756C64.2385 17.8356 64.0585 20.3956 63.9185 23.1556C63.7785 25.8956 63.6585 28.6656 63.5585 31.4656H60.7085C60.7885 29.6656 60.8785 27.8556 60.9785 26.0356C61.0785 24.1956 61.1885 22.3956 61.3085 20.6356C61.4485 18.8556 61.5885 17.1256 61.7285 15.4456C61.8885 13.7656 62.0585 12.1756 62.2385 10.6756H64.7885C65.3285 11.5556 65.9085 12.5956 66.5285 13.7956C67.1485 14.9956 67.7685 16.2556 68.3885 17.5756C69.0085 18.8756 69.6085 20.1856 70.1885 21.5056C70.7685 22.8056 71.2985 23.9956 71.7785 25.0756C72.2585 23.9956 72.7885 22.8056 73.3685 21.5056C73.9485 20.1856 74.5485 18.8756 75.1685 17.5756C75.7885 16.2556 76.4085 14.9956 77.0285 13.7956C77.6485 12.5956 78.2285 11.5556 78.7685 10.6756H81.3185C81.9985 17.3756 82.5085 24.3056 82.8485 31.4656H79.9985C79.8985 28.6656 79.7785 25.8956 79.6385 23.1556C79.4985 20.3956 79.3185 17.8356 79.0985 15.4756C78.8985 15.8156 78.6285 16.3056 78.2885 16.9456C77.9685 17.5856 77.6185 18.3156 77.2385 19.1356C76.8585 19.9356 76.4485 20.7956 76.0085 21.7156C75.5885 22.6156 75.1885 23.4956 74.8085 24.3556C74.4285 25.2156 74.0685 26.0156 73.7285 26.7556C73.4085 27.4956 73.1485 28.1056 72.9485 28.5856H70.6085Z" fill="#E6E6E6"/>
<path d="M99.8913 31.4656C99.5913 30.8656 99.2313 30.2056 98.8113 29.4856C98.3913 28.7456 97.9313 27.9856 97.4313 27.2056C96.9313 26.4056 96.4113 25.6156 95.8713 24.8356C95.3313 24.0356 94.8113 23.2856 94.3113 22.5856C93.8113 23.2856 93.2913 24.0356 92.7513 24.8356C92.2113 25.6156 91.6913 26.4056 91.1913 27.2056C90.7113 27.9856 90.2513 28.7456 89.8113 29.4856C89.3913 30.2056 89.0313 30.8656 88.7313 31.4656H85.5213C86.4213 29.7056 87.4613 27.9156 88.6413 26.0956C89.8413 24.2756 91.1113 22.4056 92.4513 20.4856L85.7913 10.6756H89.1513L94.2813 18.4156L99.3513 10.6756H102.681L96.1413 20.3656C97.5013 22.3056 98.7813 24.1956 99.9813 26.0356C101.181 27.8756 102.241 29.6856 103.161 31.4656H99.8913Z" fill="#E6E6E6"/>
<defs>
<filter id="filter0_d" x="112" y="11.4656" width="28" height="28" filterUnits="userSpaceOnUse" color-interpolation-filters="sRGB">
<feFlood flood-opacity="0" result="BackgroundImageFix"/>
<feColorMatrix in="SourceAlpha" type="matrix" values="0 0 0 0 0 0 0 0 0 0 0 0 0 0 0 0 0 0 127 0"/>
<feOffset dy="4"/>
<feGaussianBlur stdDeviation="2"/>
<feColorMatrix type="matrix" values="0 0 0 0 0 0 0 0 0 0 0 0 0 0 0 0 0 0 0.25 0"/>
<feBlend mode="normal" in2="BackgroundImageFix" result="effect1_dropShadow"/>
<feBlend mode="normal" in="SourceGraphic" in2="effect1_dropShadow" result="shape"/>
</filter>
<filter id="filter1_d" x="126" y="0.465576" width="28" height="28" filterUnits="userSpaceOnUse" color-interpolation-filters="sRGB">
<feFlood flood-opacity="0" result="BackgroundImageFix"/>
<feColorMatrix in="SourceAlpha" type="matrix" values="0 0 0 0 0 0 0 0 0 0 0 0 0 0 0 0 0 0 127 0"/>
<feOffset dy="4"/>
<feGaussianBlur stdDeviation="2"/>
<feColorMatrix type="matrix" values="0 0 0 0 0 0 0 0 0 0 0 0 0 0 0 0 0 0 0.25 0"/>
<feBlend mode="normal" in2="BackgroundImageFix" result="effect1_dropShadow"/>
<feBlend mode="normal" in="SourceGraphic" in2="effect1_dropShadow" result="shape"/>
</filter>
</defs>
</svg>
